HIERARCHY
ROOT mixamorig:Hips
{
	OFFSET 0.000000 201.639420 0.000000
	CHANNELS 6 Xposition Yposition Zposition Xrotation Yrotation Zrotation
	JOINT mixamorig:Spine
	{
		OFFSET 0.006200 19.524994 -2.481800
		CHANNELS 3 Xrotation Yrotation Zrotation
		JOINT mixamorig:Spine1
		{
			OFFSET -0.000900 22.835007 -2.825400
			CHANNELS 3 Xrotation Yrotation Zrotation
			JOINT mixamorig:Spine2
			{
				OFFSET -0.020600 26.552490 -3.193300
				CHANNELS 3 Xrotation Yrotation Zrotation
				JOINT mixamorig:Neck
				{
					OFFSET -0.060000 30.701813 1.352200
					CHANNELS 3 Xrotation Yrotation Zrotation
					JOINT mixamorig:Head
					{
						OFFSET -0.087200 22.547607 3.670900
						CHANNELS 3 Xrotation Yrotation Zrotation
						JOINT mixamorig:HeadTop_End
						{
							OFFSET -0.830600 40.355194 7.893500
							CHANNELS 3 Xrotation Yrotation Zrotation
							End Site
							{
								OFFSET 0.000000 30.592346 0.000000
							}
						}
						JOINT mixamorig:RightEye
						{
							OFFSET -6.302100 18.118591 16.197100
							CHANNELS 3 Xrotation Yrotation Zrotation
							End Site
							{
								OFFSET 0.000000 30.592346 0.000000
							}
						}
						JOINT mixamorig:LeftEye
						{
							OFFSET 6.741500 18.382690 16.401899
							CHANNELS 3 Xrotation Yrotation Zrotation
							End Site
							{
								OFFSET 0.000000 30.592346 0.000000
							}
						}
					}
				}
				JOINT mixamorig:LeftShoulder
				{
					OFFSET 11.924900 18.230499 1.425400
					CHANNELS 3 Xrotation Yrotation Zrotation
					JOINT mixamorig:LeftArm
					{
						OFFSET 25.435989 -0.697632 -5.229300
						CHANNELS 3 Xrotation Yrotation Zrotation
						JOINT mixamorig:LeftForeArm
						{
							OFFSET 54.684776 0.000000 0.000000
							CHANNELS 3 Xrotation Yrotation Zrotation
							JOINT mixamorig:LeftHand
							{
								OFFSET 55.098175 0.000000 0.000000
								CHANNELS 3 Xrotation Yrotation Zrotation
								JOINT mixamorig:LeftHandMiddle1
								{
									OFFSET 23.369751 0.000000 0.000000
									CHANNELS 3 Xrotation Yrotation Zrotation
									JOINT mixamorig:LeftHandMiddle2
									{
										OFFSET 6.378677 0.000000 0.000000
										CHANNELS 3 Xrotation Yrotation Zrotation
										JOINT mixamorig:LeftHandMiddle3
										{
											OFFSET 6.148331 0.000000 0.000000
											CHANNELS 3 Xrotation Yrotation Zrotation
											JOINT mixamorig:LeftHandMiddle4
											{
												OFFSET 6.582504 0.000000 0.000000
												CHANNELS 3 Xrotation Yrotation Zrotation
												End Site
												{
													OFFSET -1.168900 6.395691 1.028606
												}
											}
										}
									}
								}
								JOINT mixamorig:LeftHandThumb1
								{
									OFFSET 7.235672 -3.848206 5.434273
									CHANNELS 3 Xrotation Yrotation Zrotation
									JOINT mixamorig:LeftHandThumb2
									{
										OFFSET 6.568451 -3.792297 3.792300
										CHANNELS 3 Xrotation Yrotation Zrotation
										JOINT mixamorig:LeftHandThumb3
										{
											OFFSET 6.063080 -3.500519 3.500518
											CHANNELS 3 Xrotation Yrotation Zrotation
											JOINT mixamorig:LeftHandThumb4
											{
												OFFSET 4.793182 -2.767334 2.767349
												CHANNELS 3 Xrotation Yrotation Zrotation
												End Site
												{
													OFFSET 0.101639 6.054260 1.275483
												}
											}
										}
									}
								}
								JOINT mixamorig:LeftHandIndex1
								{
									OFFSET 23.101074 -0.309540 4.992809
									CHANNELS 3 Xrotation Yrotation Zrotation
									JOINT mixamorig:LeftHandIndex2
									{
										OFFSET 6.226883 0.000000 0.000000
										CHANNELS 3 Xrotation Yrotation Zrotation
										JOINT mixamorig:LeftHandIndex3
										{
											OFFSET 6.094330 0.000000 0.000000
											CHANNELS 3 Xrotation Yrotation Zrotation
											JOINT mixamorig:LeftHandIndex4
											{
												OFFSET 5.482605 0.000000 0.000000
												CHANNELS 3 Xrotation Yrotation Zrotation
												End Site
												{
													OFFSET -1.427902 5.233032 0.797164
												}
											}
										}
									}
								}
								JOINT mixamorig:LeftHandRing1
								{
									OFFSET 22.299240 0.021149 -3.964172
									CHANNELS 3 Xrotation Yrotation Zrotation
									JOINT mixamorig:LeftHandRing2
									{
										OFFSET 6.321869 0.000000 0.000000
										CHANNELS 3 Xrotation Yrotation Zrotation
										JOINT mixamorig:LeftHandRing3
										{
											OFFSET 5.899796 0.000000 0.000000
											CHANNELS 3 Xrotation Yrotation Zrotation
											JOINT mixamorig:LeftHandRing4
											{
												OFFSET 6.517899 0.000000 0.000000
												CHANNELS 3 Xrotation Yrotation Zrotation
												End Site
												{
													OFFSET -1.637299 6.232208 0.980890
												}
											}
										}
									}
								}
								JOINT mixamorig:LeftHandPinky1
								{
									OFFSET 20.463791 -0.302338 -8.562233
									CHANNELS 3 Xrotation Yrotation Zrotation
									JOINT mixamorig:LeftHandPinky2
									{
										OFFSET 6.908646 0.000000 0.000000
										CHANNELS 3 Xrotation Yrotation Zrotation
										JOINT mixamorig:LeftHandPinky3
										{
											OFFSET 4.622849 0.000000 0.000000
											CHANNELS 3 Xrotation Yrotation Zrotation
											JOINT mixamorig:LeftHandPinky4
											{
												OFFSET 5.216080 0.000000 0.000000
												CHANNELS 3 Xrotation Yrotation Zrotation
												End Site
												{
													OFFSET -0.606308 5.116241 0.814926
												}
											}
										}
									}
								}
							}
						}
					}
				}
				JOINT mixamorig:RightShoulder
				{
					OFFSET -12.001300 18.284088 1.348900
					CHANNELS 3 Xrotation Yrotation Zrotation
					JOINT mixamorig:RightArm
					{
						OFFSET -25.308500 -0.751312 -5.164599
						CHANNELS 3 Xrotation Yrotation Zrotation
						JOINT mixamorig:RightForeArm
						{
							OFFSET -54.684429 0.000000 0.000000
							CHANNELS 3 Xrotation Yrotation Zrotation
							JOINT mixamorig:RightHand
							{
								OFFSET -55.150291 0.000000 0.000000
								CHANNELS 3 Xrotation Yrotation Zrotation
								JOINT mixamorig:RightHandMiddle1
								{
									OFFSET -23.317566 0.000000 0.000000
									CHANNELS 3 Xrotation Yrotation Zrotation
									JOINT mixamorig:RightHandMiddle2
									{
										OFFSET -6.378403 0.000000 0.000000
										CHANNELS 3 Xrotation Yrotation Zrotation
										JOINT mixamorig:RightHandMiddle3
										{
											OFFSET -6.148193 0.000000 0.000000
											CHANNELS 3 Xrotation Yrotation Zrotation
											JOINT mixamorig:RightHandMiddle4
											{
												OFFSET -6.583389 0.000000 0.000000
												CHANNELS 3 Xrotation Yrotation Zrotation
												End Site
												{
													OFFSET 1.171692 6.395905 1.029786
												}
											}
										}
									}
								}
								JOINT mixamorig:RightHandThumb1
								{
									OFFSET -7.190521 -3.860474 5.435846
									CHANNELS 3 Xrotation Yrotation Zrotation
									JOINT mixamorig:RightHandThumb2
									{
										OFFSET -6.567429 -3.791718 3.791708
										CHANNELS 3 Xrotation Yrotation Zrotation
										JOINT mixamorig:RightHandThumb3
										{
											OFFSET -6.062469 -3.500153 3.500166
											CHANNELS 3 Xrotation Yrotation Zrotation
											JOINT mixamorig:RightHandThumb4
											{
												OFFSET -4.792618 -2.767029 2.767022
												CHANNELS 3 Xrotation Yrotation Zrotation
												End Site
												{
													OFFSET -0.100327 6.053253 1.276754
												}
											}
										}
									}
								}
								JOINT mixamorig:RightHandIndex1
								{
									OFFSET -23.048981 -0.310791 4.992554
									CHANNELS 3 Xrotation Yrotation Zrotation
									JOINT mixamorig:RightHandIndex2
									{
										OFFSET -6.227539 0.000000 0.000000
										CHANNELS 3 Xrotation Yrotation Zrotation
										JOINT mixamorig:RightHandIndex3
										{
											OFFSET -6.095047 0.000000 0.000000
											CHANNELS 3 Xrotation Yrotation Zrotation
											JOINT mixamorig:RightHandIndex4
											{
												OFFSET -5.484772 0.000000 0.000000
												CHANNELS 3 Xrotation Yrotation Zrotation
												End Site
												{
													OFFSET 1.420593 5.237305 0.797056
												}
											}
										}
									}
								}
								JOINT mixamorig:RightHandRing1
								{
									OFFSET -22.246323 0.020569 -3.963762
									CHANNELS 3 Xrotation Yrotation Zrotation
									JOINT mixamorig:RightHandRing2
									{
										OFFSET -6.322128 0.000000 0.000000
										CHANNELS 3 Xrotation Yrotation Zrotation
										JOINT mixamorig:RightHandRing3
										{
											OFFSET -5.900024 0.000000 0.000000
											CHANNELS 3 Xrotation Yrotation Zrotation
											JOINT mixamorig:RightHandRing4
											{
												OFFSET -6.518356 0.000000 0.000000
												CHANNELS 3 Xrotation Yrotation Zrotation
												End Site
												{
													OFFSET 1.636398 6.232697 0.982186
												}
											}
										}
									}
								}
								JOINT mixamorig:RightHandPinky1
								{
									OFFSET -20.411011 -0.303314 -8.561701
									CHANNELS 3 Xrotation Yrotation Zrotation
									JOINT mixamorig:RightHandPinky2
									{
										OFFSET -6.907349 0.000000 0.000000
										CHANNELS 3 Xrotation Yrotation Zrotation
										JOINT mixamorig:RightHandPinky3
										{
											OFFSET -4.623840 0.000000 0.000000
											CHANNELS 3 Xrotation Yrotation Zrotation
											JOINT mixamorig:RightHandPinky4
											{
												OFFSET -5.218353 0.000000 0.000000
												CHANNELS 3 Xrotation Yrotation Zrotation
												End Site
												{
													OFFSET 0.602097 5.118835 0.816273
												}
											}
										}
									}
								}
							}
						}
					}
				}
			}
		}
	}
	JOINT mixamorig:LeftUpLeg
	{
		OFFSET 18.168400 -13.561905 -0.039000
		CHANNELS 3 Xrotation Yrotation Zrotation
		JOINT mixamorig:LeftLeg
		{
			OFFSET 0.577358 -80.825211 -3.695000
			CHANNELS 3 Xrotation Yrotation Zrotation
			JOINT mixamorig:LeftFoot
			{
				OFFSET -0.577356 -83.370262 -6.520700
				CHANNELS 3 Xrotation Yrotation Zrotation
				JOINT mixamorig:LeftToeBase
				{
					OFFSET 0.750401 -20.798306 25.135401
					CHANNELS 3 Xrotation Yrotation Zrotation
					JOINT mixamorig:LeftToe_End
					{
						OFFSET -0.000500 0.001200 19.917799
						CHANNELS 3 Xrotation Yrotation Zrotation
						End Site
						{
							OFFSET 0.000000 19.917805 0.000000
						}
					}
				}
			}
		}
	}
	JOINT mixamorig:RightUpLeg
	{
		OFFSET -18.162500 -13.585098 -0.041000
		CHANNELS 3 Xrotation Yrotation Zrotation
		JOINT mixamorig:RightLeg
		{
			OFFSET -0.595024 -80.945297 -3.631900
			CHANNELS 3 Xrotation Yrotation Zrotation
			JOINT mixamorig:RightFoot
			{
				OFFSET 0.595024 -83.218193 -6.561200
				CHANNELS 3 Xrotation Yrotation Zrotation
				JOINT mixamorig:RightToeBase
				{
					OFFSET -0.753601 -20.807106 25.115000
					CHANNELS 3 Xrotation Yrotation Zrotation
					JOINT mixamorig:RightToe_End
					{
						OFFSET 0.000299 0.001700 19.918200
						CHANNELS 3 Xrotation Yrotation Zrotation
						End Site
						{
							OFFSET 0.000000 19.918203 0.000000
						}
					}
				}
			}
		}
	}
}
MOTION
Frames: 4
Frame Time: 0.033333
-5.888142 179.646866 1.278528 -7.825086 -40.325567 -8.234034 14.752973 4.817398 -0.065105 1.032725 0.674364 -0.988696 1.041258 0.651444 -0.997561 8.727628 0.846611 -5.598126 3.788961 5.503706 -19.206652 0.000001 0.000000 0.000002 0.000001 0.000000 0.000002 0.000001 0.000000 0.000002 1.825542 -1.853260 -6.263721 -2.814380 -47.731947 -38.179245 -0.000018 -43.033552 -0.000026 22.385831 -10.806526 3.829868 6.566295 6.873938 -87.379949 6.118453 6.838974 -83.620906 1.113609 3.759479 -32.990118 -0.000000 0.000001 0.000002 -15.404662 2.641654 1.046365 3.966530 38.422502 8.794438 5.951681 37.019427 -3.616349 0.000000 0.000001 -0.000005 6.933360 6.881742 -90.228670 4.358565 6.404187 -68.447026 0.411461 2.348772 -19.869592 -0.000002 -0.000001 0.000001 7.524086 6.850625 -95.457932 5.213269 6.676937 -75.939949 1.608278 4.427463 -39.911077 0.000001 -0.000001 -0.000002 10.164307 7.295168 -83.515202 5.741571 2.700173 -80.475188 0.936282 3.471631 -30.178624 0.000002 -0.000004 -0.000001 6.146235 17.950972 5.995041 -7.536829 63.087295 46.623503 0.000009 78.133976 -0.000021 13.088867 -14.506784 3.194700 6.454889 -8.338589 52.459855 5.207758 -6.727762 75.459233 0.840211 -3.182333 27.423621 -0.000001 0.000001 -0.000000 11.402331 -14.430762 -11.492041 -4.084467 -19.993999 -3.738298 6.939733 -23.963043 -7.415996 -0.000001 -0.000002 0.000001 2.247246 10.772708 -11.390762 0.367982 -2.236153 18.688060 0.071639 -0.997582 8.214720 -0.000000 -0.000001 0.000001 10.826530 -9.547098 65.136085 3.628204 -6.107130 61.397452 0.590551 -2.931866 24.663740 -0.000001 -0.000001 -0.000001 13.008415 -9.873422 69.905135 4.910728 -6.644178 72.908492 0.790025 -3.224046 27.530645 -0.000003 0.000001 -0.000001 -35.934332 7.365927 25.376567 55.080531 -0.619624 0.318240 -10.825879 1.081579 -7.856512 -2.944822 0.000217 -0.155011 0.000000 -0.000002 0.000000 -14.206141 -12.093181 -16.827115 47.281848 4.685234 -2.911290 -26.085100 -1.560579 14.221754 -0.980475 -0.002275 0.511702 0.000000 -0.000001 0.000000 
-6.105246 179.625092 1.398582 -7.881568 -40.412546 -8.344052 14.777927 4.721891 -0.099863 1.037281 0.659177 -0.924121 1.045042 0.638396 -0.932670 8.434416 0.290595 -5.840125 2.470748 2.734884 -19.886890 0.000001 -0.000002 -0.000000 0.000001 -0.000002 -0.000000 0.000001 -0.000002 -0.000000 1.838433 -1.871402 -6.491250 -2.809376 -47.699343 -38.306078 -0.000022 -42.385337 -0.000032 23.408300 -10.126889 2.664005 6.572019 6.874206 -87.427965 6.111111 6.838172 -83.559127 1.117040 3.764716 -33.042099 -0.000001 0.000002 -0.000002 -15.487773 2.664553 1.048780 4.035440 38.399358 8.722833 5.967231 37.016548 -3.640411 0.000001 -0.000001 0.000000 6.935202 6.881732 -90.244032 4.350565 6.401036 -68.375200 0.414438 2.357015 -19.942395 0.000000 -0.000002 -0.000002 7.522964 6.850737 -95.448567 5.209627 6.676037 -75.908653 1.609532 4.428967 -39.927507 0.000004 -0.000001 0.000001 10.172816 7.291329 -83.582357 5.740067 2.699936 -80.462654 0.938593 3.475588 -30.216590 0.000000 0.000000 -0.000001 5.970547 17.463505 6.487966 -10.130130 61.796314 49.655465 -0.000004 78.867204 -0.000003 13.623943 -15.150968 5.582129 6.583272 -8.402787 52.735088 5.182400 -6.721153 75.242491 0.819412 -3.147359 27.085923 -0.000005 0.000001 -0.000001 11.082835 -14.729470 -11.747802 -3.994045 -19.975669 -3.628528 6.964345 -23.940826 -7.398624 -0.000002 0.000003 0.000003 1.769032 10.591570 -8.692180 0.364046 -2.224418 18.586178 0.068748 -0.977338 8.046935 -0.000003 -0.000001 -0.000002 11.178098 -9.751213 64.841957 3.611057 -6.097815 61.236389 0.564496 -2.895442 24.303925 0.000002 0.000002 -0.000001 13.534201 -10.215496 69.174476 4.894175 -6.639110 72.765523 0.785177 -3.214728 27.443879 -0.000002 0.000000 0.000000 -35.877983 7.382579 25.521755 55.182966 -0.661609 0.348563 -10.978583 1.077764 -7.774488 -2.969533 0.000106 -0.104470 0.000000 -0.000001 0.000000 -14.110720 -12.083080 -16.720914 47.316518 4.841606 -2.935255 -26.086758 -1.618455 14.184115 -1.035419 -0.003267 0.617546 0.000000 0.000001 0.000000 
-6.318411 179.576950 1.494606 -7.921296 -40.422316 -8.454173 14.822086 4.534972 -0.054687 1.026341 0.632507 -0.882827 1.033572 0.612474 -0.890970 8.273893 0.099917 -5.993591 1.389528 1.990888 -20.442406 -0.000003 0.000000 -0.000002 -0.000003 0.000000 -0.000002 -0.000003 0.000000 -0.000002 1.831533 -1.772112 -6.720046 -2.380691 -47.535740 -38.187448 -0.000003 -42.363050 0.000003 23.796318 -9.770769 1.791754 6.573227 6.874267 -87.438019 6.106673 6.837668 -83.521992 1.120253 3.769668 -33.091228 0.000002 -0.000002 0.000000 -15.576629 2.610677 1.025696 4.060498 38.396482 8.696775 6.004168 37.000166 -3.694743 -0.000001 0.000001 -0.000002 6.932397 6.881746 -90.220686 4.343742 6.398349 -68.314043 0.417282 2.364847 -20.011447 0.000000 -0.000000 0.000000 7.524395 6.850605 -95.460548 5.207393 6.675480 -75.889467 1.611408 4.431190 -39.951474 -0.000001 0.000003 0.000003 10.173133 7.291181 -83.585089 5.741143 2.700099 -80.471779 0.941345 3.480296 -30.262126 -0.000002 0.000001 0.000003 5.799357 16.894278 6.815696 -12.836199 60.313446 52.748923 -0.000145 80.328339 0.000144 14.167186 -15.672269 6.676553 6.547045 -8.393119 52.505163 5.188701 -6.722802 75.296320 0.802394 -3.119720 26.816163 0.000001 -0.000001 -0.000000 10.633467 -15.143417 -12.136130 -3.930768 -19.964346 -3.549663 6.901474 -23.976064 -7.446789 0.000000 0.000002 -0.000001 1.624174 10.742322 -7.677047 0.367167 -2.233757 18.667153 0.068299 -0.974129 8.020287 -0.000001 0.000001 0.000002 11.349828 -9.980941 63.830249 3.608981 -6.096652 61.216738 0.546022 -2.869670 24.049096 -0.000002 0.000001 -0.000001 14.250754 -10.731691 67.949017 4.896171 -6.639714 72.782810 0.787949 -3.220060 27.493371 0.000000 0.000001 -0.000001 -35.860289 7.352662 25.624886 55.314379 -0.722557 0.419760 -11.180000 1.068785 -7.642857 -2.951203 0.000018 -0.042777 0.000000 0.000001 -0.000000 -13.999939 -12.037834 -16.535753 47.394553 4.867192 -2.995790 -26.109983 -1.730010 14.184881 -1.091032 -0.004514 0.727850 -0.000000 0.000004 -0.000000 
-6.554399 179.550674 1.600442 -8.007787 -40.484645 -8.584693 14.838321 4.376756 0.015068 0.993153 0.611409 -0.888404 1.000295 0.590729 -0.896418 8.314103 0.314743 -5.974115 1.058098 3.390844 -20.649252 -0.000004 0.000002 0.000001 -0.000004 0.000002 0.000001 -0.000004 0.000002 0.000001 1.807734 -1.588273 -6.874307 -1.912942 -47.379858 -38.166028 0.000007 -42.450736 -0.000003 22.485895 -10.028423 1.694939 6.573932 6.874280 -87.443784 6.101763 6.837100 -83.480751 1.124059 3.775481 -33.148827 -0.000001 0.000001 -0.000000 -15.543952 2.590143 1.000088 4.072249 38.396001 8.684592 6.047718 36.976267 -3.759301 0.000001 0.000002 0.000001 6.932352 6.881735 -90.220276 4.336825 6.395607 -68.251929 0.420299 2.373055 -20.084006 0.000000 -0.000005 0.000001 7.525797 6.850456 -95.472070 5.207253 6.675435 -75.888169 1.612763 4.432789 -39.969096 -0.000000 -0.000002 -0.000002 10.172737 7.291339 -83.582077 5.741745 2.700202 -80.476813 0.943380 3.483780 -30.295533 -0.000004 0.000001 0.000000 5.688263 16.511668 7.009776 -14.056242 59.573955 54.319900 0.000060 81.539529 -0.000032 14.067343 -14.878502 3.397600 6.342879 -8.310420 51.705768 5.211470 -6.728731 75.490782 0.787923 -3.096022 26.585821 -0.000001 -0.000001 -0.000000 10.188515 -15.336775 -12.381240 -3.958247 -19.973787 -3.577812 6.794667 -24.045715 -7.527102 -0.000002 0.000001 0.000002 1.715794 11.143362 -7.822984 0.367355 -2.234244 18.671318 0.067504 -0.968471 7.973431 -0.000001 0.000001 0.000003 11.254870 -10.146930 62.436856 3.618980 -6.102125 61.310893 0.537114 -2.853158 23.895890 -0.000002 0.000001 -0.000001 14.943424 -11.273800 66.806353 4.903091 -6.641848 72.842492 0.792930 -3.229586 27.582003 -0.000001 0.000001 -0.000001 -35.787524 7.349555 25.752849 55.413765 -0.634182 0.482452 -11.240031 1.083045 -7.714473 -2.993215 0.000037 -0.061243 -0.000000 -0.000001 0.000000 -13.865383 -12.014123 -16.374182 47.448986 4.925328 -3.055031 -26.142686 -1.818186 14.135282 -1.155198 -0.005128 0.776807 0.000000 -0.000003 0.000000 
